<mxfile host="app.diagrams.net" modified="2021-01-25T12:16:23.711Z" agent="5.0 (Macintosh; Intel Mac OS X 10_15_7) AppleWebKit/537.36 (KHTML, like Gecko) Chrome/87.0.4280.141 Safari/537.36" etag="MaleGw4bwQS17Z_f2BbU" version="14.2.6" type="github">
  <diagram id="mQNNEzXFlcpiZ-JmTbEu" name="tcp">
    <mxGraphModel dx="1426" dy="825" grid="1" gridSize="10" guides="1" tooltips="1" connect="1" arrows="1" fold="1" page="1" pageScale="1" pageWidth="827" pageHeight="1169" math="0" shadow="0">
      <root>
        <mxCell id="0" />
        <mxCell id="1" parent="0" />
        <mxCell id="PEpyP6COlfBFyuyTyqWd-2" value="源端口号（16位）" style="rounded=0;whiteSpace=wrap;html=1;" vertex="1" parent="1">
          <mxGeometry x="40" y="80" width="320" height="60" as="geometry" />
        </mxCell>
        <mxCell id="PEpyP6COlfBFyuyTyqWd-3" value="窗口大小（16位）" style="rounded=0;whiteSpace=wrap;html=1;" vertex="1" parent="1">
          <mxGeometry x="360" y="270" width="320" height="60" as="geometry" />
        </mxCell>
        <mxCell id="PEpyP6COlfBFyuyTyqWd-4" value="序列化（32位）" style="rounded=0;whiteSpace=wrap;html=1;fillColor=#ffe6cc;strokeColor=#d79b00;" vertex="1" parent="1">
          <mxGeometry x="40" y="140" width="640" height="60" as="geometry" />
        </mxCell>
        <mxCell id="PEpyP6COlfBFyuyTyqWd-5" value="确认应答号（32位）" style="rounded=0;whiteSpace=wrap;html=1;fillColor=#dae8fc;strokeColor=#6c8ebf;" vertex="1" parent="1">
          <mxGeometry x="40" y="200" width="640" height="70" as="geometry" />
        </mxCell>
        <mxCell id="PEpyP6COlfBFyuyTyqWd-6" value="首部长度&lt;br&gt;（4位）" style="rounded=0;whiteSpace=wrap;html=1;" vertex="1" parent="1">
          <mxGeometry x="40" y="270" width="80" height="60" as="geometry" />
        </mxCell>
        <mxCell id="PEpyP6COlfBFyuyTyqWd-7" value="保留（6位）" style="rounded=0;whiteSpace=wrap;html=1;" vertex="1" parent="1">
          <mxGeometry x="120" y="270" width="120" height="60" as="geometry" />
        </mxCell>
        <mxCell id="PEpyP6COlfBFyuyTyqWd-8" value="目标端口号（16位）" style="rounded=0;whiteSpace=wrap;html=1;" vertex="1" parent="1">
          <mxGeometry x="360" y="80" width="320" height="60" as="geometry" />
        </mxCell>
        <mxCell id="PEpyP6COlfBFyuyTyqWd-9" value="紧急指针（16位）" style="rounded=0;whiteSpace=wrap;html=1;" vertex="1" parent="1">
          <mxGeometry x="360" y="330" width="320" height="60" as="geometry" />
        </mxCell>
        <mxCell id="PEpyP6COlfBFyuyTyqWd-10" value="校验和（16位）" style="rounded=0;whiteSpace=wrap;html=1;" vertex="1" parent="1">
          <mxGeometry x="40" y="330" width="320" height="60" as="geometry" />
        </mxCell>
        <mxCell id="PEpyP6COlfBFyuyTyqWd-11" value="选项（长度可变）" style="rounded=0;whiteSpace=wrap;html=1;" vertex="1" parent="1">
          <mxGeometry x="40" y="390" width="640" height="70" as="geometry" />
        </mxCell>
        <mxCell id="PEpyP6COlfBFyuyTyqWd-12" value="数据" style="rounded=0;whiteSpace=wrap;html=1;" vertex="1" parent="1">
          <mxGeometry x="40" y="460" width="640" height="100" as="geometry" />
        </mxCell>
        <mxCell id="PEpyP6COlfBFyuyTyqWd-13" value="U&lt;br&gt;R&lt;br&gt;G" style="rounded=0;whiteSpace=wrap;html=1;" vertex="1" parent="1">
          <mxGeometry x="240" y="270" width="20" height="60" as="geometry" />
        </mxCell>
        <mxCell id="PEpyP6COlfBFyuyTyqWd-14" value="A&lt;br&gt;C&lt;br&gt;K" style="rounded=0;whiteSpace=wrap;html=1;fillColor=#ffff88;strokeColor=#36393d;" vertex="1" parent="1">
          <mxGeometry x="260" y="270" width="20" height="60" as="geometry" />
        </mxCell>
        <mxCell id="PEpyP6COlfBFyuyTyqWd-15" value="P&lt;br&gt;S&lt;br&gt;H" style="rounded=0;whiteSpace=wrap;html=1;" vertex="1" parent="1">
          <mxGeometry x="280" y="270" width="20" height="60" as="geometry" />
        </mxCell>
        <mxCell id="PEpyP6COlfBFyuyTyqWd-16" value="R&lt;br&gt;S&lt;br&gt;T" style="rounded=0;whiteSpace=wrap;html=1;fillColor=#ffff88;strokeColor=#36393d;" vertex="1" parent="1">
          <mxGeometry x="300" y="270" width="20" height="60" as="geometry" />
        </mxCell>
        <mxCell id="PEpyP6COlfBFyuyTyqWd-17" value="S&lt;br&gt;Y&lt;br&gt;N" style="rounded=0;whiteSpace=wrap;html=1;fillColor=#ffff88;strokeColor=#36393d;" vertex="1" parent="1">
          <mxGeometry x="320" y="270" width="20" height="60" as="geometry" />
        </mxCell>
        <mxCell id="PEpyP6COlfBFyuyTyqWd-18" value="F&lt;br&gt;I&lt;br&gt;N" style="rounded=0;whiteSpace=wrap;html=1;fillColor=#ffff88;strokeColor=#36393d;" vertex="1" parent="1">
          <mxGeometry x="340" y="270" width="20" height="60" as="geometry" />
        </mxCell>
      </root>
    </mxGraphModel>
  </diagram>
</mxfile>
